<svg xmlns="http://www.w3.org/2000/svg" width="2048" height="2048" viewBox="0 0 23 23" shape-rendering="crispEdges"><path fill="#FFFFFF" d="M0 0h23v23H0z"/><path stroke="#000000" d="M1 1.5h7m3 0h1m3 0h7M1 2.5h1m5 0h1m3 0h2m2 0h1m5 0h1M1 3.5h1m1 0h3m1 0h1m1 0h2m4 0h1m1 0h3m1 0h1M1 4.5h1m1 0h3m1 0h1m1 0h3m1 0h1m1 0h1m1 0h3m1 0h1M1 5.5h1m1 0h3m1 0h1m3 0h1m3 0h1m1 0h3m1 0h1M1 6.5h1m5 0h1m4 0h1m2 0h1m5 0h1M1 7.5h7m1 0h1m1 0h1m1 0h1m1 0h7M11 8.5h1M4 9.5h2m1 0h2m1 0h1m2 0h1m4 0h2M1 10.5h4m1 0h1m4 0h1m2 0h1m2 0h1m3 0h1M2 11.5h2m2 0h5m2 0h1m3 0h1m2 0h1M1 12.5h1m2 0h1m1 0h1m1 0h3m3 0h2m4 0h1M2 13.5h4m1 0h1m3 0h1m1 0h2m3 0h4M9 14.5h1m4 0h1m4 0h3M1 15.5h7m1 0h2m3 0h1m1 0h2m1 0h2M1 16.5h1m5 0h1m2 0h1m1 0h1m1 0h2m1 0h2m2 0h1M1 17.5h1m1 0h3m1 0h1m1 0h2m2 0h1m2 0h2m2 0h2M1 18.5h1m1 0h3m1 0h1m1 0h1m1 0h1m1 0h2M1 19.5h1m1 0h3m1 0h1m3 0h1m2 0h1m1 0h2m1 0h3M1 20.5h1m5 0h1m7 0h1m3 0h2M1 21.5h7m4 0h1m1 0h1m1 0h1m3 0h1"/></svg>
