<svg xmlns="http://www.w3.org/2000/svg" width="2048" height="2048" viewBox="0 0 23 23" shape-rendering="crispEdges"><path fill="#FFFFFF" d="M0 0h23v23H0z"/><path stroke="#000000" d="M1 1.5h7m1 0h5m1 0h7M1 2.5h1m5 0h1m1 0h2m1 0h2m1 0h1m5 0h1M1 3.5h1m1 0h3m1 0h1m1 0h1m1 0h1m3 0h1m1 0h3m1 0h1M1 4.5h1m1 0h3m1 0h1m4 0h1m2 0h1m1 0h3m1 0h1M1 5.5h1m1 0h3m1 0h1m3 0h1m3 0h1m1 0h3m1 0h1M1 6.5h1m5 0h1m1 0h2m2 0h1m1 0h1m5 0h1M1 7.5h7m1 0h1m1 0h1m1 0h1m1 0h7M9 8.5h2M3 9.5h3m1 0h1m1 0h1m2 0h1m1 0h3m2 0h3M3 10.5h3m5 0h2m1 0h1m1 0h1m3 0h1M1 11.5h1m5 0h2m1 0h2m3 0h1m1 0h2m1 0h2M2 12.5h5m2 0h1m6 0h4M1 13.5h1m1 0h1m1 0h4m2 0h5m1 0h1m3 0h1M9 14.5h1m6 0h1m1 0h1m1 0h2M1 15.5h7m2 0h2m2 0h1m1 0h1M1 16.5h1m5 0h1m3 0h2m1 0h3m2 0h1M1 17.5h1m1 0h3m1 0h1m1 0h3m2 0h1m1 0h1m2 0h2M1 18.5h1m1 0h3m1 0h1m1 0h3m1 0h1m1 0h3m1 0h1M1 19.5h1m1 0h3m1 0h1m1 0h3m1 0h2m1 0h2m1 0h1M1 20.5h1m5 0h1m2 0h2m1 0h1m1 0h1m1 0h2m2 0h1M1 21.5h7m2 0h2m1 0h5m1 0h1"/></svg>
